PathFileType	4	(X/Y/Z)	./resultDataOpenSim/trcMotMarkerGrf/sub06/qtm-03-04.trc
DataRate	CameraRate	NumFrames	NumMarkers	Units	OrigDataRate	OrigDataStartFrame	OrigNumFrames
250.000000	250.000000	14	24	m	250.000000	184	490
Frame#	Time	L.Toe.Tip			R.Toe.Tip			L.Ankle.Lat			R.Ankle.Lat			L.Ankle.Med			R.Ankle.Med			L.Heel			R.Heel			L.Knee.Lat			R.Knee.Lat			L.Knee.Med			R.Knee.Med			L.Thigh.Upper			R.Thigh.Upper			L.ASIS			R.ASIS			V.Sacral			L.Acromium			R.Acromium			C7			L.Elbow			R.Elbow			L.Wrist.Lat			R.Wrist.Lat
		X1	Y1	Z1	X2	Y2	Z2	X3	Y3	Z3	X4	Y4	Z4	X5	Y5	Z5	X6	Y6	Z6	X7	Y7	Z7	X8	Y8	Z8	X9	Y9	Z9	X10	Y10	Z10	X11	Y11	Z11	X12	Y12	Z12	X13	Y13	Z13	X14	Y14	Z14	X15	Y15	Z15	X16	Y16	Z16	X17	Y17	Z17	X18	Y18	Z18	X19	Y19	Z19	X20	Y20	Z20	X21	Y21	Z21	X22	Y22	Z22	X23	Y23	Z23	X24	Y24	Z24

184	0.732	0.058015552	-0.014762422	-0.043160484	-0.50409849	0.093638974	0.12688209	-0.064017065	0.015745624	-0.06856883	-0.5194164	0.23109508	0.14560505	-0.065547313	0.030425847	0.018845651	-0.48179477	0.2178996	0.065153301	-0.14155321	-0.010093837	-0.025715725	-0.54946778	0.27302187	0.080963254	0.026678992	0.37777266	-0.094095608	-0.16217872	0.33442065	0.19415922	0.0020081381	0.37815632	0.025805269	-0.17162661	0.32447137	0.061889036	-0.12807887	0.74331486	-0.15626548	-0.20203739	0.69826768	0.17526519	-0.068695008	0.775598	-0.099476531	-0.098595047	0.75690274	0.14598457	-0.26947198	0.85179198	0.015483361	-0.11983992	1.2361447	-0.18674976	-0.11647528	1.2557088	0.1783612	-0.19783395	1.2879475	-0.0075541215	-0.23130208	0.93742013	-0.20180435	-0.20081602	0.94811339	0.26163919	-0.13900253	0.71774748	-0.26756952	-0.028340946	0.76829857	0.26505204
185	0.736	0.057925352	-0.014750168	-0.043186197	-0.48626241	0.095023274	0.12807273	-0.064100233	0.015814964	-0.068535214	-0.50371328	0.23214266	0.14604522	-0.065694074	0.030483422	0.018857498	-0.46601006	0.21903575	0.065597379	-0.14163224	-0.010060335	-0.025673889	-0.53470739	0.27341391	0.081307091	0.027745763	0.37785092	-0.093893147	-0.14756848	0.3374147	0.19435464	0.0034784257	0.3783484	0.026030206	-0.15735122	0.32701625	0.062008939	-0.12318473	0.74491291	-0.15646879	-0.19560015	0.70080225	0.1754329	-0.063349775	0.77730901	-0.099876097	-0.092585736	0.75942152	0.14609949	-0.26312081	0.85434315	0.01482649	-0.11266374	1.2388544	-0.18614864	-0.11024602	1.257906	0.17889145	-0.19101443	1.2903675	-0.0071374113	-0.22330391	0.93944748	-0.20235926	-0.19585342	0.95058628	0.26118635	-0.12742508	0.72091992	-0.26716881	-0.025943551	0.7686674	0.26548452
186	0.74	0.057839142	-0.014733261	-0.043208685	-0.46819296	0.096247421	0.1291982	-0.064179311	0.015885006	-0.068506743	-0.48800549	0.23293485	0.14649268	-0.065829981	0.030550661	0.018868479	-0.45019398	0.22000263	0.065919529	-0.14171062	-0.010020583	-0.02564743	-0.51995376	0.27353618	0.081714301	0.028734749	0.37795124	-0.093580936	-0.13298237	0.34063648	0.19447098	0.0048279928	0.3785199	0.026313007	-0.14306892	0.32973667	0.062065144	-0.11834638	0.74658324	-0.15668801	-0.18921859	0.70326188	0.17603958	-0.057938859	0.77915358	-0.10024107	-0.086522826	0.76193727	0.14611763	-0.25685846	0.85692384	0.01388837	-0.10557537	1.2416453	-0.1855237	-0.10398903	1.2601158	0.17940339	-0.18424593	1.2928009	-0.0066950962	-0.21530609	0.94153663	-0.2029775	-0.19091613	0.95313291	0.26075476	-0.11582591	0.72420608	-0.26671495	-0.023600409	0.76915957	0.26592563
187	0.744	0.057763446	-0.014711658	-0.043238073	-0.44988698	0.097335675	0.13028102	-0.064242215	0.015963125	-0.06847604	-0.47226465	0.23348646	0.14696196	-0.065956157	0.030632189	0.018877403	-0.43434724	0.22079252	0.066196937	-0.14178298	-0.0099736061	-0.025637439	-0.50521527	0.27335896	0.082157507	0.029637979	0.37806549	-0.093170799	-0.11842514	0.34408617	0.19450937	0.0060187319	0.3786854	0.026664741	-0.12874998	0.33263282	0.062012983	-0.11355459	0.74830598	-0.15687166	-0.18276778	0.70571214	0.17685317	-0.052374421	0.78114503	-0.10057622	-0.080404948	0.76446647	0.14606785	-0.25068706	0.8595029	0.013065414	-0.09860273	1.2445359	-0.18490737	-0.097698451	1.2623283	0.17990114	-0.17751591	1.2952382	-0.0062273095	-0.20727553	0.94367844	-0.20369787	-0.18601331	0.95574937	0.26034337	-0.10421414	0.72759805	-0.26620736	-0.021292559	0.76976738	0.26637652
188	0.748	0.057697815	-0.014690239	-0.04327803	-0.43133847	0.098301998	0.13132914	-0.06427718	0.016058796	-0.068430726	-0.4564011	0.23384078	0.1474863	-0.066081718	0.030722984	0.018888791	-0.41847567	0.22140108	0.066479835	-0.14184486	-0.0099206824	-0.025633627	-0.49049522	0.27286729	0.082615389	0.030453248	0.37819732	-0.092676469	-0.10391159	0.34775945	0.19448252	0.006987426	0.37884603	0.027077592	-0.11433865	0.33571042	0.061846671	-0.10866853	0.75009048	-0.1569873	-0.17621631	0.70827003	0.17768884	-0.04664377	0.7832822	-0.10088261	-0.074230879	0.76702173	0.14596573	-0.24456184	0.86205981	0.012650025	-0.091728309	1.2475131	-0.18430608	-0.091377701	1.2645387	0.18038231	-0.17081371	1.2976766	-0.005735763	-0.19919075	0.94587311	-0.2045411	-0.18116223	0.95842379	0.25994905	-0.092591847	0.73108819	-0.265647	-0.019002728	0.77048105	0.26683893
189	0.752	0.057638752	-0.014672744	-0.043322607	-0.41256916	0.099129393	0.13232479	-0.064285089	0.016174059	-0.068362065	-0.4403143	0.23404085	0.14810616	-0.0662127	0.030813472	0.018910038	-0.40259927	0.22182039	0.066784314	-0.14189423	-0.0098662201	-0.025617439	-0.47579071	0.27206099	0.083077086	0.031197206	0.37834886	-0.092106721	-0.089479436	0.35164687	0.1944171	0.0076509976	0.37898009	0.027522943	-0.099851143	0.33900575	0.061622964	-0.10355212	0.75195449	-0.15704068	-0.16955233	0.7109815	0.178474	-0.04081474	0.78553776	-0.1011537	-0.068008065	0.76960946	0.14581379	-0.23844141	0.86457519	0.012620998	-0.084919733	1.2505477	-0.18370987	-0.085031447	1.2667426	0.18084383	-0.16413496	1.3001169	-0.0052244194	-0.19108605	0.94812956	-0.20545241	-0.17638116	0.96113943	0.25956477	-0.080945188	0.73466884	-0.26503522	-0.016712515	0.77128674	0.26731342
190	0.756	0.05758452	-0.014657484	-0.04335878	-0.39361687	0.099796068	0.13324679	-0.064290045	0.016299775	-0.068279565	-0.42402555	0.23406524	0.14880869	-0.066347032	0.030896367	0.018945668	-0.38674621	0.22204072	0.067109881	-0.14193774	-0.0098165716	-0.025579127	-0.46109019	0.27094307	0.083543592	0.031894961	0.37851553	-0.091471049	-0.075166139	0.35573534	0.19433426	0.0079347316	0.3790471	0.027963854	-0.085407051	0.34253746	0.061407909	-0.098170335	0.75388996	-0.15706552	-0.16277762	0.71381763	0.17922777	-0.034988658	0.78785982	-0.10138833	-0.061747639	0.77222905	0.14561072	-0.23230437	0.86703205	0.012835219	-0.078162805	1.2536137	-0.18310366	-0.078665102	1.2689317	0.18128724	-0.15747786	1.3025546	-0.0046984967	-0.18301144	0.95044456	-0.20635912	-0.17166885	0.96388014	0.25918362	-0.069264502	0.73833306	-0.26436893	-0.014399171	0.77217215	0.26780215
191	0.76	0.057535419	-0.014640663	-0.04337551	-0.37450277	0.10030914	0.13409823	-0.064326739	0.016422459	-0.068210928	-0.40772483	0.23381042	0.14949663	-0.066473786	0.030968613	0.018995928	-0.37091153	0.22206095	0.067456462	-0.14199306	-0.0097731809	-0.025532676	-0.44636923	0.26951232	0.084014178	0.032556212	0.37869168	-0.090785501	-0.060985512	0.36001096	0.19423517	0.0077915454	0.37901381	0.028369356	-0.071213911	0.34630315	0.061210365	-0.092591753	0.75585675	-0.15708	-0.15589792	0.71672884	0.17997935	-0.029215133	0.79019305	-0.10159375	-0.055447048	0.77487704	0.14536531	-0.22614166	0.8694321	0.013219731	-0.071460243	1.2566937	-0.18247352	-0.07228597	1.271094	0.18171813	-0.15083641	1.3049758	-0.0041614007	-0.17493494	0.95278366	-0.20730811	-0.167	0.96663228	0.25880365	-0.057570548	0.74207339	-0.26364378	-0.012049713	0.77313149	0.26831182
192	0.764	0.057492545	-0.014622045	-0.043371139	-0.35523377	0.1006944	0.1348991	-0.064405826	0.01653624	-0.068170569	-0.39160329	0.23318414	0.15006078	-0.066580186	0.031029081	0.019060769	-0.35501114	0.22189751	0.067831494	-0.14206558	-0.0097241993	-0.02548614	-0.43159085	0.26776463	0.084472811	0.033169201	0.37887698	-0.090065125	-0.046934743	0.36445839	0.19411088	0.0072431382	0.37890268	0.028749043	-0.057441514	0.35032995	0.060987209	-0.086923557	0.75780415	-0.15705607	-0.14890664	0.71968309	0.18073187	-0.023445055	0.79250186	-0.10177842	-0.049087046	0.77755373	0.14509969	-0.21995339	0.87180215	0.013739434	-0.064801967	1.2597772	-0.18182036	-0.065901401	1.2732191	0.18214457	-0.14420311	1.3073653	-0.0036137253	-0.16678826	0.95511013	-0.20839967	-0.16234609	0.96938528	0.25842772	-0.0458928	0.7458801	-0.26286158	-0.0096903183	0.77416542	0.26885225
193	0.768	0.057456937	-0.014604943	-0.043351354	-0.3358243	0.10096695	0.13566515	-0.064498529	0.016649854	-0.06813414	-0.37569038	0.23219001	0.15046089	-0.066662253	0.031076062	0.019142976	-0.338948	0.22157517	0.068223981	-0.14212789	-0.009648046	-0.025407251	-0.41672324	0.26570396	0.084899917	0.033730096	0.37907365	-0.089310336	-0.033011584	0.36905813	0.1939556	0.0064422985	0.37881125	0.02919111	-0.043970672	0.35463429	0.06071161	-0.081274721	0.75968476	-0.15692592	-0.14179408	0.72267865	0.18146843	-0.017555851	0.79477818	-0.10195231	-0.042650035	0.7802649	0.14483736	-0.21375654	0.87416908	0.014285608	-0.058140471	1.2628541	-0.18116763	-0.059517583	1.2753017	0.18257159	-0.13757484	1.3097151	-0.0030560601	-0.15861575	0.95743113	-0.20957881	-0.15770072	0.97213021	0.25805885	-0.034235565	0.74974115	-0.26202803	-0.0073875437	0.77527583	0.26943021
194	0.772	0.057429205	-0.014592138	-0.043323073	-0.316296	0.10112536	0.13640917	-0.064567597	0.01677998	-0.068063636	-0.35990508	0.23088075	0.15072262	-0.066723618	0.03111096	0.019246297	-0.32275172	0.22110397	0.06857141	-0.14215692	-0.0095304864	-0.025277412	-0.40177501	0.26335186	0.08529572	0.034263542	0.37927702	-0.088509368	-0.019218573	0.37378963	0.1937684	0.0056517755	0.37884186	0.029801413	-0.030323321	0.35914144	0.060348069	-0.075739376	0.76146205	-0.15661539	-0.13454951	0.72573588	0.18217391	-0.011437483	0.79702738	-0.10212382	-0.036134375	0.78301458	0.14458942	-0.20757198	0.87652478	0.014667697	-0.051424118	1.2659112	-0.18054415	-0.053138494	1.2773406	0.18299974	-0.13095195	1.3120247	-0.0024889814	-0.15053483	0.95978019	-0.21069756	-0.15308139	0.97485652	0.25769718	-0.02258941	0.75364236	-0.26114491	-0.0051877701	0.77645512	0.27004591
195	0.776	0.057409889	-0.014583187	-0.043290265	-0.29665126	0.10116804	0.13716157	-0.064604345	0.016937349	-0.067948109	-0.34415891	0.22928366	0.15090945	-0.066759738	0.031148059	0.019373606	-0.30653588	0.22047835	0.068799908	-0.14217285	-0.0093744942	-0.025144132	-0.38681223	0.26073549	0.085685214	0.034797404	0.37947205	-0.087656104	-0.0055616175	0.37863639	0.19354803	0.0051869704	0.37900449	0.030566106	-0.015924117	0.36374565	0.059776127	-0.070289346	0.76313612	-0.15610859	-0.12712951	0.72887462	0.18284801	-0.0051388261	0.79923933	-0.10227494	-0.029551064	0.78579903	0.14435679	-0.20140185	0.87882939	0.014751495	-0.044659175	1.2689314	-0.17995475	-0.046764626	1.2793338	0.18343221	-0.12433759	1.3142959	-0.0019103206	-0.14256018	0.96216186	-0.21174157	-0.14850456	0.97755116	0.25734136	-0.010951075	0.75757004	-0.26020859	-0.0030548623	0.77768028	0.2706994
196	0.78	0.057400291	-0.014575119	-0.043251295	-0.27686802	0.10110315	0.13796699	-0.064625656	0.017121111	-0.067802785	-0.328359	0.22742215	0.15110587	-0.066741918	0.031216995	0.019532049	-0.2903239	0.21969465	0.068894954	-0.14220332	-0.0091931063	-0.025050642	-0.37190223	0.25787383	0.086112908	0.035333454	0.37963958	-0.086760822	0.007946826	0.38358506	0.19328885	0.0052471498	0.3792007	0.03130622	-0.0006790865	0.36843173	0.058935419	-0.064707385	0.76474827	-0.15550019	-0.11947706	0.73209242	0.18350144	0.001037476	0.801375	-0.10234547	-0.02291633	0.78861154	0.14414427	-0.19523604	0.88106045	0.01459913	-0.037902149	1.2718968	-0.17937261	-0.040395296	1.281276	0.18387301	-0.11773739	1.3165242	-0.0013197568	-0.13459267	0.96454452	-0.21280167	-0.14396577	0.98020161	0.25699143	0.00067731465	0.76151489	-0.25921717	-0.00090379796	0.77892435	0.27140111
197	0.784	0.057402447	-0.01456535	-0.043199432	-0.25694452	0.10094345	0.13884412	-0.064649945	0.017322755	-0.067643586	-0.31240513	0.2253641	0.15137725	-0.066620761	0.031344746	0.019737987	-0.2740522	0.21873828	0.06889236	-0.14223955	-0.0090001721	-0.024966927	-0.35699511	0.25479064	0.086634203	0.03585429	0.37976506	-0.0858434	0.02128876	0.38861933	0.19298481	0.005607984	0.37931231	0.031846321	0.014549438	0.37324909	0.058045676	-0.058799566	0.76632198	-0.15492721	-0.1116508	0.73534265	0.18416732	0.0067772003	0.80339577	-0.10228434	-0.016245442	0.79144857	0.14396074	-0.18904261	0.88325377	0.014370199	-0.031197117	1.2747959	-0.1787619	-0.034032402	1.2831593	0.18431934	-0.11115295	1.3186923	-0.00072614299	-0.12654955	0.96689381	-0.21391494	-0.13944595	0.98279919	0.25664983	0.012287711	0.76547129	-0.25817648	0.0013183737	0.78017195	0.27216902
